<svg xmlns="http://www.w3.org/2000/svg" viewBox="0 0 500 500"><g id="freepik--City--inject-169"><path id="freepik--city--inject-169" d="M460.29,174.77,446.8,167V127.2s-14.92-8.32-15.19-8.32-15.19,8.32-15.19,8.32v15.93l-15.19-8.77-15.18,8.77v15.15l-15.19,8.77V140.58l-7.6-4.38-7.59,4.38v17.54l-7.6-4.38-15.19,8.77V149.15l-7.59-4.38-15.19,8.77v22.12l-7.59-4.38v-8.77l-15.19-8.77-15.19,8.77v-8.78l-22.79-13.15-15.19,8.77V131.81L219,123l-15.19,8.77v24.38l-7.6,4.38V143L181,134.26,165.8,143v26.31L143,156.19V138.65l-15.19-8.77-15.19,8.77v10.08l-7.59-4.38-15.19,8.77v10.7l-15.19,8.77V140.48l-15.19-8.77L39.71,143.13V293.48H460.29Z" style="fill:#f5f5f5"></path></g><g id="freepik--Streetlights--inject-169"><g id="freepik--street-light--inject-169"><path d="M40.89,293.48c.64,0,1.15.64,1.15,0V54.93a13.67,13.67,0,0,1,6.08-10.52l17.62-10.2c1.4-.81,2.67-1,3.55-.47s1.37,1.69,1.37,3.31V58.18a1.16,1.16,0,0,0,2.31,0V37.05c0-2.48-.9-4.36-2.53-5.3s-3.7-.78-5.85.46L47,42.42a15.71,15.71,0,0,0-7.23,12.51V293.48C39.74,294.12,40.26,293.48,40.89,293.48Z"></path><path d="M68,53.26a9.17,9.17,0,0,1,8.32,0A2.91,2.91,0,0,1,78,55.66v1.7a2.93,2.93,0,0,1-1.72,2.4,9.24,9.24,0,0,1-8.32,0,3,3,0,0,1-1.72-2.4v-1.7A2.93,2.93,0,0,1,68,53.26Z" style="fill:#455a64"></path><path d="M68,55c-2.29,1.32-2.29,3.47,0,4.8a9.24,9.24,0,0,0,8.32,0c2.29-1.33,2.29-3.48,0-4.8A9.17,9.17,0,0,0,68,55Z" style="fill:#37474f"></path><path d="M66.43,71.27H77.89V57.93a2.85,2.85,0,0,0-1.68-2.34,9,9,0,0,0-8.1,0,2.85,2.85,0,0,0-1.68,2.34h0Z" style="fill:#BA68C8"></path><path d="M66.43,71.27H77.89V57.93a2.85,2.85,0,0,0-1.68-2.34,9,9,0,0,0-8.1,0,2.85,2.85,0,0,0-1.68,2.34h0Z" style="fill:#fff;opacity:0.7000000000000001"></path><path d="M76.21,73.61c2.24-1.29,2.24-3.39,0-4.68a9,9,0,0,0-8.1,0c-2.23,1.29-2.23,3.39,0,4.68A9,9,0,0,0,76.21,73.61Z" style="fill:#BA68C8"></path><path d="M76.21,73.61c2.24-1.29,2.24-3.39,0-4.68a9,9,0,0,0-8.1,0c-2.23,1.29-2.23,3.39,0,4.68A9,9,0,0,0,76.21,73.61Z" style="fill:#fff;opacity:0.5"></path><path d="M68.72,59.86a3.44,3.44,0,1,1,3.44,3.44A3.44,3.44,0,0,1,68.72,59.86Z" style="fill:#fff;opacity:0.2"></path><path d="M66.43,64a7,7,0,0,0,11.46,0v-6a2.85,2.85,0,0,0-1.68-2.34,9,9,0,0,0-8.1,0,2.85,2.85,0,0,0-1.68,2.34Z" style="fill:#fff;opacity:0.2"></path><path d="M70.56,59.86a1.6,1.6,0,1,1,1.6,1.59A1.6,1.6,0,0,1,70.56,59.86Z" style="fill:#fff;opacity:0.4"></path><path d="M68,68.37a9.17,9.17,0,0,1,8.32,0A2.91,2.91,0,0,1,78,70.77v1.7a2.92,2.92,0,0,1-1.72,2.4,9.24,9.24,0,0,1-8.32,0,2.94,2.94,0,0,1-1.72-2.4v-1.7A2.93,2.93,0,0,1,68,68.37Z" style="fill:#455a64"></path><path d="M68,70.07c-2.29,1.32-2.29,3.47,0,4.8a9.24,9.24,0,0,0,8.32,0c2.29-1.33,2.29-3.48,0-4.8A9.17,9.17,0,0,0,68,70.07Z" style="fill:#37474f"></path></g><g id="freepik--street-light--inject-169"><path d="M459.11,293.48c-.64,0-1.15.64-1.15,0V54.93a13.67,13.67,0,0,0-6.08-10.52l-17.62-10.2c-1.4-.81-2.67-1-3.55-.47s-1.37,1.69-1.37,3.31V58.18a1.16,1.16,0,0,1-2.31,0V37.05c0-2.48.9-4.36,2.53-5.3s3.7-.78,5.85.46L453,42.42a15.71,15.71,0,0,1,7.23,12.51V293.48C460.26,294.12,459.74,293.48,459.11,293.48Z"></path><path d="M432,53.26a9.17,9.17,0,0,0-8.32,0,2.91,2.91,0,0,0-1.72,2.4v1.7a2.93,2.93,0,0,0,1.72,2.4,9.24,9.24,0,0,0,8.32,0,3,3,0,0,0,1.72-2.4v-1.7A2.93,2.93,0,0,0,432,53.26Z" style="fill:#455a64"></path><path d="M432,55c2.29,1.32,2.29,3.47,0,4.8a9.24,9.24,0,0,1-8.32,0c-2.29-1.33-2.29-3.48,0-4.8A9.17,9.17,0,0,1,432,55Z" style="fill:#37474f"></path><path d="M433.57,71.27H422.11V57.93a2.85,2.85,0,0,1,1.68-2.34,9,9,0,0,1,8.1,0,2.85,2.85,0,0,1,1.68,2.34h0Z" style="fill:#BA68C8"></path><path d="M433.57,71.27H422.11V57.93a2.85,2.85,0,0,1,1.68-2.34,9,9,0,0,1,8.1,0,2.85,2.85,0,0,1,1.68,2.34h0Z" style="fill:#fff;opacity:0.7000000000000001"></path><path d="M423.79,73.61c-2.24-1.29-2.24-3.39,0-4.68a9,9,0,0,1,8.1,0c2.23,1.29,2.23,3.39,0,4.68A9,9,0,0,1,423.79,73.61Z" style="fill:#BA68C8"></path><path d="M423.79,73.61c-2.24-1.29-2.24-3.39,0-4.68a9,9,0,0,1,8.1,0c2.23,1.29,2.23,3.39,0,4.68A9,9,0,0,1,423.79,73.61Z" style="fill:#fff;opacity:0.5"></path><path d="M431.28,59.86a3.44,3.44,0,1,0-3.44,3.44A3.44,3.44,0,0,0,431.28,59.86Z" style="fill:#fff;opacity:0.2"></path><path d="M433.57,64a7,7,0,0,1-11.46,0v-6a2.85,2.85,0,0,1,1.68-2.34,9,9,0,0,1,8.1,0,2.85,2.85,0,0,1,1.68,2.34Z" style="fill:#fff;opacity:0.2"></path><path d="M429.44,59.86a1.6,1.6,0,1,0-1.6,1.59A1.6,1.6,0,0,0,429.44,59.86Z" style="fill:#fff;opacity:0.4"></path><path d="M432,68.37a9.17,9.17,0,0,0-8.32,0,2.91,2.91,0,0,0-1.72,2.4v1.7a2.92,2.92,0,0,0,1.72,2.4,9.24,9.24,0,0,0,8.32,0,2.94,2.94,0,0,0,1.72-2.4v-1.7A2.93,2.93,0,0,0,432,68.37Z" style="fill:#455a64"></path><path d="M432,70.07c2.29,1.32,2.29,3.47,0,4.8a9.24,9.24,0,0,1-8.32,0c-2.29-1.33-2.29-3.48,0-4.8A9.17,9.17,0,0,1,432,70.07Z" style="fill:#37474f"></path></g></g><g id="freepik--Clouds--inject-169"><path id="freepik--Cloud--inject-169" d="M393.44,95.64c0-3.3,3.61-5.6,7.71-6,4.82-.46,8.25,1.69,8.36,5.49,3.16-1.29,6.48-.46,6.23,3,.82-1,3.89-.92,5-.66a4.32,4.32,0,0,1,2.74,2.34,3.15,3.15,0,0,1,.29,1.78c1.84-.6,6-1,7.07.72,1.86,3-5.58,3.09-7.08,2.19-.32,2.33-8.31,2.72-10.25.56-1.51,1.52-3.68,1.86-6,2-4,.23-6.38-1.11-9.46-2.68-3.36,2.84-9.16,2.89-12.19-.36-.77.73-2.89,1-4.59.55-1.12-.27-1.38-.75-1.38-.75a9.29,9.29,0,0,1-2.05.62c-2.2.46-6.28,0-4.56-2a5.14,5.14,0,0,1,3.62-.89c.95-1.88,4.8-3.67,7-2.07C384,97.23,386,95.44,389,95,390,94.84,392.31,94.7,393.44,95.64Z" style="fill:#f5f5f5"></path><path id="freepik--cloud--inject-169" d="M86,101.07c0-3.3,3.62-5.59,7.71-6,4.83-.45,8.25,1.7,8.37,5.5,3.15-1.3,6.48-.47,6.23,3,.82-.94,3.89-.92,5-.65a4.29,4.29,0,0,1,2.75,2.34,3.22,3.22,0,0,1,.29,1.77c1.83-.6,6-1,7.06.72,1.87,3-5.57,3.1-7.07,2.19-.32,2.34-8.32,2.72-10.25.56-1.52,1.53-3.69,1.86-6,2-4,.24-6.38-1.1-9.47-2.68-3.35,2.85-9.16,2.9-12.18-.35-.77.72-2.9,1-4.6.54-1.12-.26-1.38-.74-1.38-.74a9.68,9.68,0,0,1-2,.62c-2.19.46-6.27,0-4.56-2a5.2,5.2,0,0,1,3.62-.89c1-1.88,4.8-3.66,7-2.07.09-2.28,2.17-4.06,5.11-4.52C82.51,100.27,84.87,100.14,86,101.07Z" style="fill:#f5f5f5"></path></g><g id="freepik--Floor--inject-169"><g id="freepik--Shrubbery--inject-169"><path d="M477.66,354.15c7.81,7.81,2.28,14.92-6.49,14.39,3.5,9.3-2.83,16.51-5.89,17.65H33.75v-.05c-14.95-6.33-15.27-26.33-6.1-29.57-6.4-1.34-8.13-15.46.61-13.45l-.17-.13.25.16a8.62,8.62,0,0,1-1.65-1.76c-1.42-1.74-2.2-4.56-.36-6.3-4.62.74-10-3.25-7.71-8.12-5.64-2.74-4.43-12.66,1.06-15-5.86-4.76-3.4-14.83,3.58-17a6.87,6.87,0,0,1-1.64-4.16c-.62-10.39,8.06-15,10.34-15.27a11.22,11.22,0,0,1,2.47-10.26h0a10.17,10.17,0,0,1,1.3-1.16,11.1,11.1,0,0,1,8.85-2.49c-.35-10,9.73-16.75,18.43-11.54,1.88-9.73,22-8,23,.16,6.81-3.41,11.74.87,11.14,8.33a5.72,5.72,0,0,1,10.51,1.27c-.9-5.39,5-10.31,9.79-7.24-1.68-6.37,5.66-12.45,11.08-8,.17-4.51,4.65-7.06,8.76-5.55a6.15,6.15,0,0,1,11.21-1c5.16-9.94,19-2.64,16.1,7.05,3.54-2.85,10.35-3.52,11.29,2.12.34-5.51,5.86-6,9.07-2.41-.86-7,4.28-10.41,8.88-8.57,0-5.43,8.29-6.52,10.21-1.13-.9-2.55,4.25-4.8,6.53-1.68,2.71-2.72,8.66.07,8.05,4.91,1.31-6.39,9.69-5.79,11.84-.19,0-2.78,5.31-4.84,5.3-2,0-13.06,18.74-18.6,25.31-1.54,2.05-5.81,9.63-6.79,10.75.45,1.1-3.58,5.71-2.85,7.1.18,3.54-10.68,14.71-10.16,15.34-1.61,1.08-3.67,5.86-2.74,6.4.64,3.81-7,10.89-2.68,8.59,4.22a4.52,4.52,0,0,1,5.93-1c.18-10,12.82-7.23,14.5-.67a4.18,4.18,0,0,1,6.4.81c.86-4,6.54-2.69,8.39-.27-6.26-7.72,4.37-19.8,10.65-10.81-.61-7.63,9.4-3.9,11.95,2.62,5.46-5.63,15.73,2.61,10.66,9.69,5.36-.37,9.43,9,3.63,11.6a3.7,3.7,0,0,1,2.82,4.81c1.57-2.87,4.14-5.06,7.18-3-3.46-3.27.29-8.13,4.66-7.53-2.46-12.46,15.87-18.09,21.21-8.52,3-8.13,17-2,14,5.65a7.21,7.21,0,0,1,6.21.88,10.1,10.1,0,0,1,2.07,1.61h0a11.41,11.41,0,0,1,1.2,1.48,0,0,0,0,1,0,0,7.23,7.23,0,0,1,.3,7.88c6.33.15,8.37,9.5,3.62,13.38,3.65,1,4.84,8.25.57,11.88,2.47,0,6.32,5.19,6.2,8,2.43-5.32,11.58-4.4,11.76,2.56,6.25-2.68,11.66,3,9.57,9.14,6.52,1.28,7.65,9.27,5.55,14.65,8.92,1.27,9.84,14.73,4.35,20.79C487.48,337.67,487.49,353.8,477.66,354.15Z" style="fill:#BA68C8"></path><g style="opacity:0.15"><path d="M422.79,258a6.36,6.36,0,0,0-9.5-.62,7.18,7.18,0,0,0-1.24,1.63,6.33,6.33,0,0,0-5.16-1.64,7,7,0,0,0-5.73,5.84A7.67,7.67,0,0,1,414.47,265a6.61,6.61,0,0,0,0-1.25,8,8,0,0,0-.91-2.83,7.34,7.34,0,0,1,.7-.79,7.47,7.47,0,0,1,9.25-1.06A6.16,6.16,0,0,0,422.79,258Z"></path><path d="M336.9,252.8a4.9,4.9,0,0,1,7.33-.48,5.49,5.49,0,0,1,.95,1.26,4.87,4.87,0,0,1,4-1.26,5.37,5.37,0,0,1,4.41,4.5,5.91,5.91,0,0,0-10.26,1.33,5.19,5.19,0,0,1,0-1,6,6,0,0,1,.7-2.18,5.21,5.21,0,0,0-.54-.62,5.75,5.75,0,0,0-7.13-.81A4.08,4.08,0,0,1,336.9,252.8Z"></path><path d="M458.07,349.76a5.52,5.52,0,0,1-.57,0A1.89,1.89,0,0,1,458.07,349.76Z"></path><path d="M477.66,354.15c7.81,7.81,2.28,14.92-6.49,14.39,3.5,9.3-2.83,16.51-5.89,17.65H455c2.83-2.67,6.47-4.87,5.31-9.73-.94-3.94.8-8.34-1.95-10.32,1-1.17,2.1-2.14,3.13-3.23a3.79,3.79,0,0,0,1.37-2.62c0-2.65-.8-5.08-3-6.45-1.95-1.2-.26-3.88-1.74-4.08a6,6,0,0,0,4.25-1.93,4.47,4.47,0,0,0,.44-5.26c3.47,1,7.5,1.57,10.36-.79,2.68-2.23,3.39-6.65,2-10a10.34,10.34,0,0,0-8-6c3.4-.7,5.53-5.39,4-8.77a8,8,0,0,0-3.42-3.5c-3.38-1.9-8-1.63-10.53,1.44a9.4,9.4,0,0,0-4-9.2,7.82,7.82,0,0,0-9.31,1,8.12,8.12,0,0,0-.19-6.93,7.2,7.2,0,0,0-2.93-3c-.43-.24-1.37-.34-1.33-1a1.5,1.5,0,0,1,.17-.46,10.84,10.84,0,0,0,.76-1.66,6.54,6.54,0,0,0-.32-4.86c-2-3.78-5.57-3.5-7.76-2.49,2.75-4.09-1.63-11-5.94-7.4,2.17-2.67,3.49-4,5.92-4.5,1.81-.38,4.27-.14,5.47,1,1.95-2.86,1.32-9.88-3.53-10.55,3.54-4.55,1.36-9.76-3.4-11.51,2-1.07,5-1.52,6.14-4.08,1.24-2.84-.31-5.61-2-7.7l.35.1a2.46,2.46,0,0,1,.34.09,8.12,8.12,0,0,1,1.41.59,5.45,5.45,0,0,1,.58.31.05.05,0,0,1,0,0,7,7,0,0,1,.64.41,2.93,2.93,0,0,1,.26.19,11.42,11.42,0,0,1,.86.74,1.42,1.42,0,0,1,.13.12,1.85,1.85,0,0,0,.14.14c.1.11.21.22.3.34a8.36,8.36,0,0,1,.9,1.14,0,0,0,0,1,0,0,2.16,2.16,0,0,1,.18.3,2.63,2.63,0,0,1,.2.33,11.64,11.64,0,0,1,.59,1.36,1.24,1.24,0,0,1,0,.16.19.19,0,0,1,0,.12c0,.09.05.16.07.25a1.55,1.55,0,0,1,0,.21.8.8,0,0,1,.05.21,7.09,7.09,0,0,1-.91,4.94,5.41,5.41,0,0,1,4.12,1.84l.43.5c2.3,3,2.44,8.25-.93,11,3.65,1,4.84,8.25.57,11.88,2.47,0,6.32,5.19,6.2,8a5.41,5.41,0,0,1,.42-.79,4.88,4.88,0,0,1,.53-.69q.14-.15.3-.3a5,5,0,0,1,1-.76c.26-.14.51-.26.78-.38h0a7.13,7.13,0,0,1,.82-.26c3.43-.89,7.72.9,7.88,5.74a7.1,7.1,0,0,1,8.43,1.78,7.35,7.35,0,0,1,1.44,6,9.78,9.78,0,0,1-.31,1.33,7.78,7.78,0,0,1,3.32,1.53,3.05,3.05,0,0,1,.38.32,8,8,0,0,1,.88,1,11,11,0,0,1,1.92,7.22c0,.44-.07.88-.12,1.32s-.15.91-.25,1.35-.22.88-.35,1.31c-.07.22-.14.43-.22.63a7.56,7.56,0,0,1,2.21.57,5.1,5.1,0,0,1,.77.4,4.44,4.44,0,0,1,.73.49,5.85,5.85,0,0,1,.67.56l.31.31c4.11,4.36,4.14,13.58-.34,18.46C487.48,337.67,487.49,353.8,477.66,354.15Z"></path><path d="M41.71,377.17c-5.44,1.24-1.37-14.09,2.34-16.5-11.63-1.95-7-11.47-4.36-14-7.54-1.51-8.9-10.41-1.27-15.13-1.64-.53-4-3-2.35-7.42,1.94-5.17,9.65-5.73,11.74-5.93-1.66-.39-6.55-6.3-1.9-11.16a13.87,13.87,0,0,1-3.79,2,6.23,6.23,0,0,1-4.81-.36c-.91-.52-4.36-3.84-1-7.42-8.55.22-2.47-11.6,4.23-11.2-3.1-1.95-5.58-4.27-4.44-8.44a9.58,9.58,0,0,1,7-6.44c-5.32-3-8.44-7.11-6-12a11.77,11.77,0,0,0-1.37.93,10.17,10.17,0,0,0-1.3,1.16h0A11.22,11.22,0,0,0,32,275.54c-2.28.27-11,4.88-10.34,15.27A6.87,6.87,0,0,0,23.26,295c-7,2.19-9.44,12.26-3.58,17-5.49,2.32-6.7,12.24-1.06,15-2.27,4.87,3.09,8.86,7.71,8.12-1.84,1.74-1.06,4.56.36,6.3a8.62,8.62,0,0,0,1.65,1.76l-.25-.16.17.13c-8.74-2-7,12.11-.61,13.45-9.17,3.24-8.85,23.24,6.1,29.57v.05H49.82C45.58,384.88,41.89,381.92,41.71,377.17Z"></path><path d="M60,386.18h.09v0Z"></path><path d="M105.79,269.71a6.38,6.38,0,0,0-9.34-1.95A6.73,6.73,0,0,0,95,269.2a6.41,6.41,0,0,0-4.92-2.35,6.78,6.78,0,0,0-6.37,5,7.69,7.69,0,0,1,5.42-2.31,8.08,8.08,0,0,1,7.57,5.9,7.28,7.28,0,0,0,.1-1.25,7.88,7.88,0,0,0-.56-2.93,7.39,7.39,0,0,1,.78-.69,7.47,7.47,0,0,1,9.3.25A6.19,6.19,0,0,0,105.79,269.71Z"></path><path d="M140.83,252.54a5.16,5.16,0,0,1,8.39-2.29,5.39,5.39,0,0,1,3.52-2.71,5.22,5.22,0,0,1,5.74,2.79,6,6,0,0,0-4.6-.85,6.75,6.75,0,0,0-5.07,6,4.84,4.84,0,0,1-.27-1,6.3,6.3,0,0,1,0-2.41,6.3,6.3,0,0,0-.72-.4,6.06,6.06,0,0,0-7.27,1.83A4.93,4.93,0,0,1,140.83,252.54Z"></path><path d="M49.08,287.9a3.89,3.89,0,0,1,5.83-.3,4.22,4.22,0,0,1,.75,1,3.89,3.89,0,0,1,3.18-1,4.29,4.29,0,0,1,3.48,3.63,4.71,4.71,0,0,0-8.18,1,4,4,0,0,1,0-.77,4.91,4.91,0,0,1,.58-1.73,4.93,4.93,0,0,0-.42-.49,4.6,4.6,0,0,0-5.68-.72A3.63,3.63,0,0,1,49.08,287.9Z"></path></g></g><g id="freepik--Field--inject-169"><ellipse id="freepik--floor--inject-169" cx="249.52" cy="369.28" rx="217.37" ry="117.79" style="fill:#BA68C8"></ellipse><ellipse id="freepik--floor--inject-169" cx="249.52" cy="369.28" rx="217.37" ry="117.79" style="fill:#fff;opacity:0.6000000000000001"></ellipse></g></g><g id="freepik--Shadows--inject-169"><ellipse id="freepik--Shadow--inject-169" cx="167.77" cy="408.48" rx="77.41" ry="44.69" style="fill:#BA68C8;opacity:0.2"></ellipse><ellipse id="freepik--shadow--inject-169" cx="334.12" cy="402.01" rx="74.05" ry="42.75" style="fill:#BA68C8;opacity:0.2"></ellipse></g><g id="freepik--Characters--inject-169"><g id="freepik--characters--inject-169"><g id="freepik--Character--inject-169"><g id="freepik--Bottom--inject-169"><path d="M132.82,208.49c-2.82,8.57-3.64,20.47-4.8,40-1.14,19.1-1.54,36.18-2.93,57.49-2,5.08-4.64,10.39-6.41,33.76-.89,11.84-1.11,26.48-2.36,39l-.93,7.58c1.61,8.87,14.58,9.67,16.32,4.43a67.74,67.74,0,0,0,2.83-8.89c4.31-16.84,11.15-39.91,15.26-52.43,3.2-9.71,11.95-44.63,17.78-64.7l8.16,40.09s-2.73,4.87,2.42,31.61c2.42,12.55,4.17,16.15,6.4,33.53.24,1.89,1.75,3,1.8,4.89,0,.55,1.45,2.36,6.72,3.14s10.77-2.84,10.73-3.61c-1-19.68.45-51.58.55-64.81.28-32.53,0-83.52-1.33-104.26Z" style="fill:#b16668"></path><path d="M233.16,398.34c.34,0,.94,3.63-.81,5.23-2,1.86-8,5-16.13,4.17s-10.39-2.36-13.69-5-6.35-5.36-10-6.06c-3.41-.64-8.6-1.85-9.72-2.87s-1.1-5.67-1.1-5.67Z" style="fill:#263238"></path><path d="M184.19,367.91a1.45,1.45,0,0,0-1.33,1.15c-.21,1.29-.37,5-.84,7.15a53.26,53.26,0,0,0-.13,13.56c.51,2.38,7.56,3.65,11.12,4.9s6.31,3,10.06,5.95a24.78,24.78,0,0,0,15.05,5c6.21-.23,13.15-2.45,14.67-5.38,1.88-3.62,2.07-7-7.27-11.06-1.76-.75-7.23-3.75-9.36-5a40,40,0,0,1-6.56-4.69,33.83,33.83,0,0,1-2.43-2.36,7.81,7.81,0,0,1-1.35-2.57c-.59-1.68-.42-3.53-.76-5.28a.71.71,0,0,0-.59-.69,10.93,10.93,0,0,0-4.52-.1,18.22,18.22,0,0,0-4.52,1.16,3.77,3.77,0,0,0-2.05,1.39,3.44,3.44,0,0,0-.36,1.73,11.88,11.88,0,0,1,0,1.79,1,1,0,0,1-.22.6c-.3.32-.81.08-1.08-.15a24.53,24.53,0,0,1-2.57-2.91c-.46-.53-2.42-.82-3-1.23a17.17,17.17,0,0,1-1.61-1C184,369.37,184.24,368.65,184.19,367.91Z" style="fill:#37474f"></path><path d="M203.07,400.62a45.67,45.67,0,0,0-4.38-3.15h0s9.94,3.59,14.23.48c2.76-2,1.35-4.32,1.26-5.06s6.78-4.16,9.51-4.56h0c.78.4,1.43.72,1.83.89,9.34,4,9.15,7.44,7.27,11.06-1.52,2.93-6.52,5.33-14.56,5.56A25.45,25.45,0,0,1,203.07,400.62Z" style="fill:#455a64"></path><path d="M213.36,390.72c5.8,2.12,3.39,3.26,1.79,3.54s-9.82-4.15-15.84-8.63C193,381,187.54,376,185.2,374.26c-.86-.64-1.8-1.43-2.64-2.17.12-1.27.2-2.42.3-3,.18-1.08,1.44-1.43,1.44-1.43l.26,2.29a4.44,4.44,0,0,0,1.7.8,7.5,7.5,0,0,1,2.89,1.4,24.53,24.53,0,0,0,2.57,2.91C196.91,381.24,207.57,388.59,213.36,390.72Z" style="fill:#263238"></path><path d="M214.72,393.43a.57.57,0,0,1-.47-.91,13.64,13.64,0,0,1,10.38-4.45.57.57,0,0,1-.09,1.13c-3.95-.31-8.15,2.4-9.39,4A.59.59,0,0,1,214.72,393.43Z" style="fill:#f0f0f0"></path><path d="M209.63,390.75a.56.56,0,0,1-.37-.11.57.57,0,0,1-.12-.79,13.65,13.65,0,0,1,10.27-4.68.56.56,0,0,1,.54.59.57.57,0,0,1-.6.54,12.64,12.64,0,0,0-9.29,4.22A.6.6,0,0,1,209.63,390.75Z" style="fill:#f0f0f0"></path><path d="M204.91,387.68a.63.63,0,0,1-.37-.12.58.58,0,0,1-.1-.8,13.64,13.64,0,0,1,10.38-4.44.57.57,0,0,1,.52.61.56.56,0,0,1-.61.52c-3.95-.31-8.15,2.4-9.39,4A.59.59,0,0,1,204.91,387.68Z" style="fill:#f0f0f0"></path><path d="M200.74,384.89a.55.55,0,0,1-.37-.1.56.56,0,0,1-.14-.79,13.69,13.69,0,0,1,10.18-4.88.57.57,0,1,1,0,1.13c-4-.14-8,2.75-9.21,4.4A.54.54,0,0,1,200.74,384.89Z" style="fill:#f0f0f0"></path><path d="M196.24,381.6a.54.54,0,0,1-.36-.1.56.56,0,0,1-.14-.79c2-2.95,6.92-5.13,11.16-5a.57.57,0,0,1-.05,1.14c-3.81-.16-8.38,1.85-10.18,4.47A.55.55,0,0,1,196.24,381.6Z" style="fill:#f0f0f0"></path><path d="M131.08,418.53c-.57,5.56-1.6,9.22-3.73,12.4s-5.91,4-9.64,2.91-8.47-3.91-9.33-8.77-.5-8.14.59-13.27Z" style="fill:#263238"></path><path d="M116.32,378.7c-1.34.37-2,8-3.25,15.44-1.32,8-2.85,10.35-4,16.9-1.33,7.48-.91,10,1.52,14.69s11.57,9.56,16.46,3.25c4-5.14,4.24-10.19,4.24-17.72a159,159,0,0,1,.86-17.91c.56-5.62,3.72-10.85,2.39-11.53.25.12-1,3.86-1.12,4.18a7.23,7.23,0,0,1-.9,2.05c-.78,1-1.06-.71-1-1.36,0-1.11.46-2-.37-2.95a6.42,6.42,0,0,0-2.27-1.44,14.4,14.4,0,0,0-2.8-.94,30.05,30.05,0,0,0-6-.6,2.9,2.9,0,0,0-2.36.86,1.76,1.76,0,0,0-.25.58c-.18.73-.13,1.5-.32,2.23,0,.2-.16.74-.36.85s-.52,0-.53-.1S116.11,380,116.32,378.7Z" style="fill:#37474f"></path><path d="M109.5,408.48c-.2,1.08-1.26,7.82.64,9.21,2.06,1.49,3.48-4.1,3.48-4.1s5-1.3,12.13,2.19c-.43,1.15.51,5.05,2.54,4.32s3-8.09,3-8.19c0,7.22-.36,12.07-4.24,17.07-4.89,6.31-14,1.42-16.46-3.25s-2.85-7.21-1.52-14.69C109.2,410.29,109.34,409.15,109.5,408.48Z" style="fill:#455a64"></path><path d="M114.16,414.09c-.15,2.72-2.54,1.68-2.74-2.16-.3-5.76,1.38-11.18,1.65-17.79,1.24-7.46,1.69-15.39,3.25-15.44-.12,1.3-.08,6.48-.08,6.48-.73,5.58-2.5,12.08-2.54,17.87C113.67,408.15,114.32,411.37,114.16,414.09Z" style="fill:#263238"></path><path d="M124.91,415.67c.63-2.65,1.53-3.37,2.3-8.42s4-14,5.28-19.42c.37-1.69,2-6,2-6,1,.51-.11,3.62-1,7s-1.52,5.42-2.16,8.65c-1.63,6.42-2.14,13.29-3.18,17S124.28,418.32,124.91,415.67Z" style="fill:#263238"></path><path d="M125.52,415.83a.86.86,0,0,1-.21-.07A18.34,18.34,0,0,0,113.37,414a.57.57,0,0,1-.68-.44.57.57,0,0,1,.44-.69,19.22,19.22,0,0,1,12.77,1.92.57.57,0,0,1,.2.79A.59.59,0,0,1,125.52,415.83Z" style="fill:#f0f0f0"></path><path d="M127.34,410.49a.6.6,0,0,1-.19-.06c-.06,0-6.84-3.52-13.93-2.22a.59.59,0,0,1-.68-.46.6.6,0,0,1,.47-.68c7.5-1.37,14.41,2.2,14.68,2.34a.58.58,0,0,1,.24.78A.57.57,0,0,1,127.34,410.49Z" style="fill:#f0f0f0"></path><path d="M112.62,403.76a.57.57,0,0,1-.47-.41.58.58,0,0,1,.39-.72c7.09-2.05,16.12,1.63,16.41,1.8a.58.58,0,0,1,.21.79.6.6,0,0,1-.79.21c-.07,0-8.91-3.6-15.51-1.69A.49.49,0,0,1,112.62,403.76Z" style="fill:#f0f0f0"></path><path d="M114,398.93a.58.58,0,0,1-.09-1.12c7.81-2.41,15.51,2.16,15.77,2.33a.58.58,0,1,1-.64,1c-.06,0-7.52-4.42-14.79-2.19A.43.43,0,0,1,114,398.93Z" style="fill:#f0f0f0"></path><path d="M114.71,393a.58.58,0,0,1-.09-1.12c7.31-2.37,15.57,2.31,15.86,2.5a.58.58,0,0,1-.62,1c-.07-.05-8.09-4.58-14.89-2.38A.57.57,0,0,1,114.71,393Z" style="fill:#ebebeb"></path><path d="M167.77,267.67l6.81,35.92s-.12,8.12.65,18.52,3.75,24.64,6.29,35.62a23.38,23.38,0,0,0,22.8-.06s.63-41.17.73-55.8c.14-18.85-.55-73.48-1.8-96.62l-73,3.4s-2.47,8.42-3.3,27-2.72,68.93-2.72,68.93c-6,18-6.33,29.45-7.29,62.26,7.2,9.63,21.19,4.65,21.19,4.65s10.59-33.77,13.63-43.7c3.57-11.69,12.57-49,16-60.17" style="fill:#455a64"></path><path d="M198.37,242.35l1.23,27.87c.23,4.53.61,28.72.52,33.19s-1.39,40.62-.82,49.71c1.11-10.12,2.59-41.21,2.94-50.35,0-9.19-.11-16.11-1.05-31.75A279.09,279.09,0,0,0,198.37,242.35Z" style="fill:#37474f"></path><path d="M154.76,239.14c-1.12,10.37-8.34,52.56-9.93,62.82s-12.43,50.62-13.7,61c2.07-10.23,14.08-50.32,15.77-60.65S154.45,249.57,154.76,239.14Z" style="fill:#37474f"></path><path d="M175.82,232.14l-8,35.53,6.81,35.92-3.17-30.11,7.74-36.76s13.6-2.78,15-12.75C187.12,232.64,175.82,232.14,175.82,232.14Z" style="fill:#37474f"></path></g><g id="freepik--Top--inject-169"><path d="M199.83,102.14c-4.27-6.17-11.23-8.23-21.2-6.6L203,145.7a210.73,210.73,0,0,0,1.61-23C204.64,113.47,204.1,108.31,199.83,102.14Z" style="fill:#37474f"></path><g id="freepik--Chest--inject-169"><path d="M204.32,205.59c-13.6,24.25-63.39,24.68-75.95,8.73a328.57,328.57,0,0,0,3.32-33.93c.39-9.75-4.73-26.49-4.31-38.77s5.24-20.15,5.24-20.15,16.88-17.17,28.25-21.78c19-7.71,27.5-2.32,27.5-2.32,5,1.47,16.23,19.09,16.23,32.23C204.6,146.44,204.32,205.59,204.32,205.59Z" style="fill:#ebebeb"></path></g><g id="freepik--Head--inject-169"><path d="M155.45,56.34a10.76,10.76,0,0,0-5.3-1.39c-2.05,0-2.75,0-4.59,1.31a5.47,5.47,0,0,0-2.13,3.06,7.48,7.48,0,0,0,.38,5.13c.58,1.52-.22,2.72-.72,4.16a5,5,0,0,0,1.09,5.2c1.2,1.21,2.89,2.23,3.57,3.86.82,1.93.59,4.1,1.4,6.09A15,15,0,0,0,152,88.05a19,19,0,0,1,2,3.08c.61,1,1.9,1.44,2.77,2.13.3.24,1,1.23,1.43,1.11.63-.16.25-2.1.24-2.53,0-1.68,0-3.36-.11-5L158,80.29s4.19-5.69,4.66-10.36c.6-6-.66-8.47-.66-8.47C159.88,59.86,157.8,57.67,155.45,56.34Z" style="fill:#263238"></path><path d="M161.81,65.92A17.55,17.55,0,0,0,163.72,75c1.25,2.4,3.51,5.66,6.21,6.53a28.48,28.48,0,0,0,3,.69A24.63,24.63,0,0,0,183.16,82c2.5-.57,5-1.43,6.76-3.4a22.91,22.91,0,0,0,3.13-4c.27-.53.29-1.1.57-1.63.67-1.25,1.9-2.36,2.32-3.72a14.06,14.06,0,0,0,.17-3.72c0-1.37.92-2.37,1-3.71a5,5,0,0,0-.83-3.44A14.82,14.82,0,0,0,195,56.6,9.47,9.47,0,0,0,192.47,55c-.82-.47-1.54-1.1-2.36-1.56a32.07,32.07,0,0,0-6.32-2.63,20.77,20.77,0,0,0-9.6-.46c-3.29.61-6.55,3.25-8.59,5.79A17.46,17.46,0,0,0,161.81,65.92Z" style="fill:#263238"></path><path d="M150,89.49c3.83,1.5,5.56-.94,5.56-.94l-1.31,16.2c4.5,5.75,15.24,12.8,23.14,11.76,4.24-.56,4.87-4.3.75-9.92l.73-5.31a34.53,34.53,0,0,0,6.64,0c4.28-.66,7.61-3.78,8.9-8.41,2.07-7.45,1.35-20.69-1-34.87-4.78-3.73-23-2.46-33.06,3.9,1.11,6.09,1.18,7.85.53,11.57s-2,5.43-3.12,5.59c-2.05.3-2.36-1.92-3.67-3.3s-6.32-2.19-8.46,2.32S147.07,88.34,150,89.49Z" style="fill:#c8856a"></path><path d="M178.88,101.28c-6.82-.69-15.42-3.9-17.6-7a23.39,23.39,0,0,1-3-5.69s.12,4.26,1.77,7,7.79,7.49,18.48,8.23Z" style="fill:#af6152"></path><path d="M193,47.16a3.46,3.46,0,0,1-1.58-1.43c-.6-1.12-.83-2.33-1.7-3.31a6.42,6.42,0,0,0-4.91-2.4c-1.76,0-3.42,1.07-5.16,1.34-1.89.3-2.68-.57-4.13-1.47-1.82-1.13-4.84-1.11-6.87-.49a6.79,6.79,0,0,0-2.52,1.33c-.67.62-1,1.55-1.88,2-1.49.82-3.81-.17-5.42-.3-2.83-.24-5.11.64-5.7,3-.25,1-.27,1.81-.51,2.73a3,3,0,0,1-1.5,1.79,5.39,5.39,0,0,0-2.81,3.15,5.29,5.29,0,0,0,1.39,5.44c1.37,1.14,3.82,2,5.64,1.5.23,1.58,2.17,2.71,3.69,2.89a6.45,6.45,0,0,0,2.59,0c.3-.08,2.6-1.08,2.35-1.53A5.32,5.32,0,0,0,168.33,64a6,6,0,0,0,5.48-2.67c-.45.71.75,1.77,1.24,2.11a5.58,5.58,0,0,0,2.75.81A4.69,4.69,0,0,0,182,62.08a3.28,3.28,0,0,1,3.37-1.34,13.6,13.6,0,0,0,3.66.58,4.5,4.5,0,0,0,4-2.52,4.57,4.57,0,0,0,.14-3.14c1.07,1.7,4.39,2.36,4.71-.2a.89.89,0,0,1-1.48-.49c-.16-.88.76-1.79.94-2.62a3.88,3.88,0,0,0-2.1-4.16C194.57,47.79,193.75,47.53,193,47.16Z" style="fill:#263238"></path><path d="M176.6,74.67a2,2,0,1,1-2-2.1A2.06,2.06,0,0,1,176.6,74.67Z" style="fill:#263238"></path><path d="M175,67.36l-4.67,1.53a2.57,2.57,0,0,1,1.62-3.18A2.39,2.39,0,0,1,175,67.36Z" style="fill:#263238"></path><path d="M192.8,67.91l-4.75-1.4a2.36,2.36,0,0,1,3-1.72A2.6,2.6,0,0,1,192.8,67.91Z" style="fill:#263238"></path><path d="M192.48,73.71a2,2,0,1,1-2-2.09A2,2,0,0,1,192.48,73.71Z" style="fill:#263238"></path><path d="M175.28,86.34l6.62,2.58a3.5,3.5,0,0,1-4.55,2.15A3.72,3.72,0,0,1,175.28,86.34Z" style="fill:#af6152"></path><path d="M175.08,87.37a3.68,3.68,0,0,0,2.27,3.7,3.37,3.37,0,0,0,2.38,0A5.46,5.46,0,0,0,175.08,87.37Z" style="fill:#f28f8f"></path><path d="M187,78.43a29.81,29.81,0,0,0-3.59-5c-.07-.08-.15-.14-.21-.21a.08.08,0,0,0-.05-.05,5.38,5.38,0,0,0-3-1.75l.4,3.4,1.14,9.54,7.39-2.25C188.39,80.82,187.7,79.58,187,78.43Z" style="fill:#af6152"></path></g><path d="M198.88,153.79S161.77,131.64,155,127.84c-8.51-4.8-15.29-8.86-19.3-5.14-3.56,3.3-5.38,7.18-4.55,16.61.53,6,3.23,10.08,11.2,16.31s40.94,19.92,47.33,21.65c13.58,3.67,14.41,3.93,22.39-2.94" style="fill:#c8856a"></path><path d="M134.63,119.49c3.2-1.74,8.31-.11,15.93,4.68s34,21.06,34,21.06A31.54,31.54,0,0,1,181.24,163c-4.68,9-7.29,9.58-7.29,9.58s-30.25-13.28-33.62-15.13S131,151.59,129,145.17,125.12,126.14,134.63,119.49Z" style="fill:#37474f"></path></g></g><g id="freepik--character--inject-169"><g id="freepik--bottom--inject-169"><path d="M328.41,362l1.65-17.7-23.5-3s.68,9.33.69,16.27c0,6.72,0,9.55-2.29,13.34s-8.08,8.64-14.48,11.18-12.49,6-10.75,9.63,11.31,5.35,15.47,4.48,13.43-5.78,18.15-9.26,12.49-5.12,14.29-5.89,2.23-3.31,2.17-7.53A91.81,91.81,0,0,0,328.41,362Z" style="fill:#ffa8a7"></path><path d="M295.94,193.33c-.83,12,2.06,46.43,2.92,71.61.4,11.88,2.54,28.76,3,34,1.2,14.9,4.51,49,4.51,49s12.51,5,23.72.55c1.89-18.7,8.5-45.27,3.53-61.17l8.05-88.59Z" style="fill:#455a64"></path><path d="M324.54,286.77c-.53-4.75.53-49.19.54-49.64l-1,0c0,1.83-1.07,44.95-.53,49.77a42,42,0,0,0,.85,4.49,82.77,82.77,0,0,1,2.18,23.26c-.33,10-.95,25.19-1.37,35.27l1-.2c.42-10.09,1-25.13,1.36-35a83.93,83.93,0,0,0-2.2-23.52A41.63,41.63,0,0,1,324.54,286.77Z" style="fill:#37474f"></path><path d="M333.59,287.37l4.57-50.3c-16.23-2.23-27.57-10.34-30.55-17A23.81,23.81,0,0,0,322,237.83s3.77,30.91,5.57,41.75,4.16,16.25,7.23,33.9C335.72,303.74,335.81,294.49,333.59,287.37Z" style="fill:#37474f"></path><path d="M278.47,392c-.32,0-.75,3.53,1,5,2,1.69,8,4.43,15.76,3.31s11.95-3.59,15-6.23,7.39-6.38,10.9-7.21c3.27-.77,8.57-2.69,9.6-3.71s.81-5.5.81-5.5Z" style="fill:#263238"></path><path d="M328.41,362a2.42,2.42,0,0,1,1.28,1.51c.26,1.23.3,2.81.84,4.83.76,2.8,1.34,8.57.94,10.87s-7.47,4.37-10.86,5.71a43.56,43.56,0,0,0-10.94,7.12c-3.62,3.06-11.27,6.2-16.35,6.35-7.75.23-12.81-1.79-14.4-4.54-1.38-2.38-.21-5.89,1.76-7.62,2.72-2.4,6.1-3.93,9.34-5.58,5-2.57,10.68-5.74,13.84-10.58a12.41,12.41,0,0,0,2-6.95A2.56,2.56,0,0,1,306,362a2.26,2.26,0,0,1,1.77-1c3.79-.62,7.15,1,10.72,2.31a4.08,4.08,0,0,1,2.18,1.42c1,1.51-.22,3.52.11,5.29a.82.82,0,0,0,.12.33c.24.36.81.27,1.19.05,1.37-.81,1.75-2.56,2.54-3.93a6.68,6.68,0,0,1,2.66-2.56,7.88,7.88,0,0,1,1.07-.43S328.45,362,328.41,362Z" style="fill:#37474f"></path><path d="M286.14,382.64c11.24.6,14.58,9.72,15.12,14a26.67,26.67,0,0,1-7.94,1.79c-7.75.23-13.13-1.78-14.72-4.53C276.74,390.67,278.23,385.77,286.14,382.64Z" style="fill:#fafafa"></path><path d="M301.62,384a.53.53,0,0,0,.35-.13.54.54,0,0,0,.06-.77c-1.59-1.88-5.93-5.11-10-4.6a.54.54,0,1,0,.14,1.08c3.8-.46,7.77,2.74,9,4.23A.52.52,0,0,0,301.62,384Z" style="fill:#f0f0f0"></path><path d="M306.41,381.13a.57.57,0,0,0,.35-.12.54.54,0,0,0,.06-.77c-1.59-1.89-5.94-5.12-10-4.61a.54.54,0,1,0,.14,1.08c3.8-.46,7.77,2.74,9,4.23A.52.52,0,0,0,306.41,381.13Z" style="fill:#f0f0f0"></path><path d="M310.84,377.86a.5.5,0,0,0,.34-.13.54.54,0,0,0,.07-.77c-1.59-1.88-5.95-5.11-10-4.6a.54.54,0,0,0-.47.61.55.55,0,0,0,.61.47c3.79-.46,7.77,2.74,9,4.23A.56.56,0,0,0,310.84,377.86Z" style="fill:#f0f0f0"></path><path d="M314.93,373.94a.5.5,0,0,0,.33-.12.54.54,0,0,0,.08-.77c-2.19-2.67-6.87-5.15-10.94-4.65a.55.55,0,0,0,.13,1.09c3.67-.46,8,1.89,10,4.25A.52.52,0,0,0,314.93,373.94Z" style="fill:#f0f0f0"></path><path d="M305.82,343.06c4.54,3.2,17.48,6.16,24.93,1l-1.29,9.4c-4.48,3-17.71,4.16-22.95-1.77Z" style="fill:#37474f"></path><path d="M370.22,378.34l.46-20.77-23.28.87,3.43,21s1.35,8.52,1.65,10.58a167.8,167.8,0,0,1,1.22,17.78c.1,7.83.5,15.09,2.65,18.7s4.49,4.17,8,3,7.8-5.12,9.15-11.34-.52-15.41-1.3-17.51S370.34,386,370.22,378.34Z" style="fill:#ffa8a7"></path><path d="M367.08,199.53l-46-.24c1.51,11.57,12.18,90.16,14.56,103.44s12.82,65.36,12.82,65.36,2.47,3.9,10.31,3.42c8.81-.54,12.21-4.1,12.21-4.1s1.71-28,1.88-44.42a106.42,106.42,0,0,0-3.93-30.69s1.17-29.94,1.14-50S369.92,215.89,367.08,199.53Z" style="fill:#455a64"></path><path d="M351.83,417.56c.24,5.5,1.05,9.15,2.95,12.4s5.59,4.32,9.34,3.44,8.57-3.32,9.71-8,1.82-7.95,1-13.05Z" style="fill:#263238"></path><path d="M370.22,378.34c1.53.15,1,7.42,1.8,14.81.83,7.92,1.93,11.08,2.68,17.58.86,7.42-.42,10.71-3.09,15.15s-12,8.68-16.42,2.19c-3.63-5.29-3.7-11.1-3.25-18.49.46-7.64-.21-12.79-.75-18.58-.56-6-1.7-11-.36-11.55,0,0,.9,4.56,1.24,5.51.15.41.73,1.45,1-.09.08-.46,0-1.52,0-2,.13-1.28.92-1.47,1.43-1.75a14.74,14.74,0,0,1,6.58-1.32c3,0,5.61,0,7.27.86,1,.53,1,1.48,1.06,2.42.11,1.12.12,1.81.4,1.59C370.36,384.25,370,379.13,370.22,378.34Z" style="fill:#37474f"></path><path d="M375.07,415A18.49,18.49,0,0,1,372,426.24c-2.67,4.43-12.71,8.68-17.16,2.19-2.22-3.23-2.77-7-3-10.87C354.64,412.66,370.83,410.75,375.07,415Z" style="fill:#fafafa"></path><path d="M355.31,409.56a.59.59,0,0,0,.19-.05c.07,0,7.23-2.84,14.14-1.13a.57.57,0,1,0,.28-1.11c-7.31-1.8-14.62,1.08-14.89,1.21a.55.55,0,0,0-.28.75A.57.57,0,0,0,355.31,409.56Z" style="fill:#f0f0f0"></path><path d="M369.38,402.85a.58.58,0,0,0,.49-.37.57.57,0,0,0-.34-.73c-6.87-2.44-14.58.92-14.87,1.07a.56.56,0,0,0-.26.76.59.59,0,0,0,.77.26c.07,0,7.58-3.3,14-1A.5.5,0,0,0,369.38,402.85Z" style="fill:#f0f0f0"></path><path d="M369.22,397.64a.56.56,0,0,0,.48-.37.57.57,0,0,0-.33-.73c-7.55-2.83-14.88.87-15.15,1a.55.55,0,0,0-.21.77.58.58,0,0,0,.79.21c.06,0,7.14-3.58,14.17-.95A.43.43,0,0,0,369.22,397.64Z" style="fill:#f0f0f0"></path><path d="M368.91,392.51a.57.57,0,0,0,.16-1.1c-7.07-2.77-14.95,1-15.25,1.18a.57.57,0,0,0,.55,1c.07,0,7.72-3.69,14.29-1.12A.73.73,0,0,0,368.91,392.51Z" style="fill:#ebebeb"></path><path d="M347,361.85c4.76,2.72,17.71,4.34,24.46-1.56l-.31,9.48c-4.08,3.4-16.89,6-22.6.59Z" style="fill:#37474f"></path><path d="M368.23,305.44c-.32-2.57-.62-4.6-.91-6.56-1-6.57-1.89-12.77-3.13-37.55-.46-9.33-.5-16.52-.54-22.87-.07-12.86-.12-22.2-3.47-39h-1c3.17,15.79,3.41,25,3.49,36.67-6.15-.25-9.66-6.15-11-18.53-1.44-13.1-2.89-22.06-2.91-22.14l-1,.16c0,.09,1.47,9,2.9,22.09,1.41,12.83,5.35,19.18,12,19.44,0,.43,0,.85,0,1.29,0,6.35.08,13.56.54,22.91,1.25,24.83,2.17,31.06,3.14,37.64.29,2,.59,4,.9,6.54a371.16,371.16,0,0,1,2,58.86l1,0A373.18,373.18,0,0,0,368.23,305.44Z" style="fill:#37474f"></path></g><g id="freepik--top--inject-169"><path d="M316.47,92.49c-6.76.74-15.47,7.35-27.46,22.74-11.61,14.9-19.18,24.56-19.18,24.56l18.88,17.91,23.05-27.55Z" style="fill:#ffa8a7"></path><path d="M325.33,92.31c-9.73-2.16-17.14.18-23.61,7.08-7.44,7.94-26,32.39-26,32.39a59,59,0,0,1,11.55,8.35c4.56,4.56,6.9,11.33,6.9,11.33l18-22.69Z" style="fill:#37474f"></path><g id="freepik--chest--inject-169"><path d="M296,126.14c.05-13.14,12-30.81,16.69-32.28,0,0,8-5.4,25.83,2.32,10.67,4.61,28.46,17.5,28.46,17.5a159.76,159.76,0,0,1,3,24.43c.39,12.27-4.42,29-4,38.77s1.22,19.6,3.11,33.92c-11.79,15.95-60.6,15.08-73.37-9.16C295.79,182.34,296,140.2,296,126.14Z" style="fill:#BA68C8"></path></g><g id="freepik--head--inject-169"><path d="M303.21,66.84c-2.14-4.63-.37-12.36-.37-12.36a12.78,12.78,0,0,0-1.75,10.72c-4.43-5.12-3.58-15.42,5.38-21.24,11.86-7.7,35-9.12,40,7.45,3.85.58,6.08,5,5.73,14.18s-5.59,21-4.66,25.28,2.22,5.36,2.22,5.36a7.49,7.49,0,0,1-5.6-4.21,30.08,30.08,0,0,0,1.86,5.5H313.57Z" style="fill:#263238"></path><path d="M358.94,51.69a5.81,5.81,0,0,0-.47-3.26,10.27,10.27,0,0,0-1.87-2.76,9.42,9.42,0,0,0-2.73-2.17,4.93,4.93,0,0,0-.67-.27c-2.45-3.79-7-6.44-11.15-4.41-9.6,5,2.25,19.68,10.36,15.24A6.24,6.24,0,0,0,355,49.47a5.83,5.83,0,0,1,.69.8,6.72,6.72,0,0,1,.77,1.45,11.57,11.57,0,0,1,.74,2.77,9.93,9.93,0,0,0-.07-4.34,6,6,0,0,0-2.37-3.45v0A7.62,7.62,0,0,1,358.94,51.69Z" style="fill:#263238"></path><path d="M347.14,86.89c-3.79,1.38-5.3-1-5.3-1l1.28,15.88c-4.55,5.52-15.25,12.71-23,11.49-4.13-.66-4.65-4.36-.47-9.76L319,98.4a34.58,34.58,0,0,1-7.61-.51,11.3,11.3,0,0,1-8.25-9.12c-.93-5.1-.91-17.37,1.24-29,.48-2.59,2.17-6.43,4.15-8.1.53,2.22.77,4.25,6.66,4.89,6.5.71,16.43-6.3,20.91-1.24a7.83,7.83,0,0,0-3,6.62c.08,3.59,3,7.3,3.32,9.54.55,3.68,1.84,5.36,2.91,5.55,2,.35,2.37-1.82,3.69-3.14s6.25-2,8.23,2.49S350.05,85.83,347.14,86.89Z" style="fill:#ffa8a7"></path><path d="M336.6,93.23c1.69-2.64,1.91-6.81,1.91-6.81a22.77,22.77,0,0,1-3.05,5.5c-2.21,3-9.8,6-16.5,6.48l.33,2.37C329,100,335,95.76,336.6,93.23Z" style="fill:#f28f8f"></path><path d="M308.49,79.39l7.28,2.1,1.31-12.71C314.17,69.13,311.31,74,308.49,79.39Z" style="fill:#f28f8f"></path><path d="M321.39,72.4a2,2,0,1,0,2-2A2,2,0,0,0,321.39,72.4Z" style="fill:#263238"></path><path d="M323.12,65.26l4.55,1.58a2.52,2.52,0,0,0-1.54-3.14A2.34,2.34,0,0,0,323.12,65.26Z" style="fill:#263238"></path><path d="M305.63,65.49l4.68-1.29a2.33,2.33,0,0,0-2.9-1.74A2.56,2.56,0,0,0,305.63,65.49Z" style="fill:#263238"></path><path d="M305.85,71.19a2,2,0,1,0,2-2A2,2,0,0,0,305.85,71.19Z" style="fill:#263238"></path><path d="M321.94,83.81l-6.55,2.36a3.42,3.42,0,0,0,4.4,2.22A3.64,3.64,0,0,0,321.94,83.81Z" style="fill:#b16668"></path><path d="M322.11,84.83a3.58,3.58,0,0,1-2.32,3.56,3.25,3.25,0,0,1-2.32,0A5.31,5.31,0,0,1,322.11,84.83Z" style="fill:#f28f8f"></path></g><path d="M359,119.25c5.25-6.23,9.2-6.68,16.49,8.08,9.5,19.22,12.51,24.8,17.83,39.35,4,11,4.09,11.72-.29,21-2.44,5.16-16.79,31.65-21.16,36.51-2.9,3.24-6.77,9.42-9.83,12,0,0-7.18.36-9.5-12.51,0,0-1.85-1.54-5.91.28-2.81,1.26-6.48,1.8-8.37.27s2.1-2.78,4.06-4.24a24.83,24.83,0,0,1,9.68-5c5.08-1.32,6.07-2.65,10-8.65,4.73-7.27,9.62-25.61,9.62-25.61L360,157.14C349,135,353.76,125.48,359,119.25Z" style="fill:#ffa8a7"></path><path d="M352.46,127.77c2.3-11.32,10.49-14.66,13.53-14.36s7.81,5.72,10.71,12.18c4.45,9.88,13.76,32.33,13.76,32.33a23.11,23.11,0,0,1-10.63,11.26c-8.11,4.29-12.57,4.73-12.57,4.73s-3.54-6.17-8.11-15.64S350.68,136.55,352.46,127.77Z" style="fill:#37474f"></path><path d="M371.61,180.66a16.25,16.25,0,0,1,11.6-5.95c-4.41-1.58-9.57.29-12.63,3.89Z" style="fill:#f28f8f"></path></g></g><g id="freepik--Arms--inject-169"><path d="M247.36,119.49c-.23,1.75,1.09,3.89,3.71,6.11,3.44,2.92,21.68,13.42,21.68,13.42l16,18.68a69.41,69.41,0,0,1-6.9,7c-2.83,2.42-5.91,3.43-13.49-1.09C257.15,157,226.77,127,226.77,127l3-4.27Z" style="fill:#ffa8a7"></path><path d="M212.1,174.33c7.55-7.1,10-10.55,19.73-23.93a156.63,156.63,0,0,0,12.08-19c1.77-3.07,5.45-10.4,5.43-11.89a126,126,0,0,0-1.05-13,3.07,3.07,0,0,0-.62-1.59c-.69-.83-1.94-1-2.75-1.68s-1-1.65-1.66-2.29a4.36,4.36,0,0,0-3.1-.83,2.38,2.38,0,0,1-1-.11,3.66,3.66,0,0,1-.83-.65c-1.92-1.68-4.62-.48-6,1.29l2.67,2.53a29.94,29.94,0,0,0-7.49,2.06l2.26,17.49-3,4.27c-7.06,7.77-27.89,26.78-27.89,26.78" style="fill:#c8856a"></path><path d="M225.12,105.36a40.55,40.55,0,0,1,9.33.2c1.75.39,1.56,2.77-.78,3.56,4,0,6.28.41,7.53,1.22a1.57,1.57,0,0,1,.4,2.08,5.17,5.17,0,0,1-2.61,1.19c.56.07,2.82.23,2.91,1.76.1,1.75-3.1,2-5.29,2.23,1.94.31,2.38,3.18-1.15,3.91s-5.7,1.23-5.7,1.23l-3,4.27a2.1,2.1,0,0,1-1.42-1.12A4.82,4.82,0,0,0,225,125c-.37-.57-1.12-.78-1.57-1.3a3.23,3.23,0,0,1-.47-2.38,3.66,3.66,0,0,0-.36-2.41c-.45-.63-1.28-.91-1.7-1.56a3.54,3.54,0,0,1-.23-2.26,2.7,2.7,0,0,0-.45-2.2c-.26-.26-.6-.41-.83-.69a2.05,2.05,0,0,1,.18-2.24,13.46,13.46,0,0,1,2.6-3.08A4.69,4.69,0,0,1,225.12,105.36Z" style="fill:#ffa8a7"></path><path d="M233.67,109.12c-1,.14-2.12.21-3.18.27s-2.12.07-3.16.17a2.81,2.81,0,0,0-.71.13,3.51,3.51,0,0,0-.65.36c-.45.27-.87.59-1.3.9l-2.55,1.9a28.41,28.41,0,0,1,2.31-2.21c.41-.35.83-.67,1.27-1a4.76,4.76,0,0,1,.74-.42,3.39,3.39,0,0,1,.84-.17,31.31,31.31,0,0,1,3.21-.06C231.55,109,232.61,109.06,233.67,109.12Z" style="fill:#f28f8f"></path><path d="M239,113.61c-2.55.24-5.1.3-7.65.37h-1a1.74,1.74,0,0,0-.43,0,4.28,4.28,0,0,0-.43.14c-.58.22-1.15.51-1.73.77l-3.44,1.68a36.33,36.33,0,0,1,3.27-2,16.55,16.55,0,0,1,1.74-.86l.47-.16a2.15,2.15,0,0,1,.53-.07l1,0C233.87,113.47,236.43,113.44,239,113.61Z" style="fill:#f28f8f"></path><path d="M236.59,117.49c-1,.14-2,.21-2.93.29s-2,.12-2.91.25a3.42,3.42,0,0,0-1.25.55l-1.26.75c-.83.51-1.66,1-2.52,1.53A27.51,27.51,0,0,1,228,119c.39-.3.81-.57,1.22-.84a4.19,4.19,0,0,1,1.42-.64,22.94,22.94,0,0,1,3-.13C234.63,117.4,235.61,117.43,236.59,117.49Z" style="fill:#f28f8f"></path><path d="M225.53,105.34c.81-1.39,2.26-4.1,3.26-4.5a29.87,29.87,0,0,1,4.82-.87c.78-.08,2.91.79,4,1.1s.64,2-2.07,2.46-4.6.51-5.3.73-2.71,1-2.71,1Z" style="fill:#f28f8f"></path></g></g></g><g id="freepik--Lines--inject-169"><g id="freepik--lines--inject-169"><path d="M237.18,91.44a1,1,0,0,1-1-1L235.54,78a1,1,0,0,1,1-1,1,1,0,0,1,1,.94l.62,12.51a1,1,0,0,1-.95,1Z" style="fill:#e0e0e0"></path><path d="M226.77,94.79a1,1,0,0,1-.86-.45L219,83.65a1,1,0,0,1,1.68-1.09l6.9,10.69a1,1,0,0,1-.3,1.38A.91.91,0,0,1,226.77,94.79Z" style="fill:#e0e0e0"></path><path d="M219.42,102.91a1.15,1.15,0,0,1-.47-.11l-10.88-5.58a1,1,0,0,1,.91-1.78L219.87,101a1,1,0,0,1,.43,1.34A1,1,0,0,1,219.42,102.91Z" style="fill:#e0e0e0"></path><path d="M268,127.82a1.12,1.12,0,0,1-.47-.11l-11-5.63a1,1,0,0,1,.92-1.78l11,5.63a1,1,0,0,1,.43,1.34A1,1,0,0,1,268,127.82Z" style="fill:#e0e0e0"></path><path d="M259.35,111.49a1,1,0,0,1-1-.95,1,1,0,0,1,.95-1l12.83-.65a1,1,0,0,1,1.05,1,1,1,0,0,1-1,1l-12.83.64Z" style="fill:#e0e0e0"></path><path d="M256,101.08a1,1,0,0,1-.86-.46,1,1,0,0,1,.3-1.38l10.44-6.75A1,1,0,1,1,267,94.17l-10.44,6.75A1.05,1.05,0,0,1,256,101.08Z" style="fill:#e0e0e0"></path><path d="M247.88,93.74a1,1,0,0,1-.47-.11,1,1,0,0,1-.44-1.35L252.77,81a1,1,0,0,1,1.35-.43,1,1,0,0,1,.44,1.34L248.75,93.2A1,1,0,0,1,247.88,93.74Z" style="fill:#e0e0e0"></path></g></g></svg>